{
    "asset" : {
        "generator" : "Khronos glTF Blender I/O v1.8.19",
        "version" : "2.0"
    },
    "extensionsUsed" : [
        "KHR_materials_unlit"
    ],
    "scene" : 0,
    "scenes" : [
        {
            "name" : "Scene",
            "nodes" : [
                6
            ]
        }
    ],
    "nodes" : [
        {
            "mesh" : 0,
            "name" : "aroe_0"
        },
        {
            "children" : [
                0
            ],
            "name" : "aroe",
            "rotation" : [
                0.5833781361579895,
                0,
                0,
                0.8122007250785828
            ],
            "scale" : [
                0.5,
                0.49999988079071045,
                0.49999988079071045
            ],
            "translation" : [
                0.02590000070631504,
                0,
                0.334960013628006
            ]
        },
        {
            "mesh" : 1,
            "name" : "Pot001_0"
        },
        {
            "mesh" : 2,
            "name" : "Pot001_1"
        },
        {
            "children" : [
                1,
                2,
                3
            ],
            "name" : "Pot001"
        },
        {
            "children" : [
                4
            ],
            "name" : "Root"
        },
        {
            "children" : [
                5
            ],
            "name" : "Sketchfab_model",
            "rotation" : [
                -0.7071068286895752,
                0,
                0,
                0.7071068286895752
            ]
        }
    ],
    "materials" : [
        {
            "alphaMode" : "BLEND",
            "doubleSided" : true,
            "extensions" : {
                "KHR_materials_unlit" : {}
            },
            "name" : "taniku01-tex.004",
            "pbrMetallicRoughness" : {
                "baseColorTexture" : {
                    "index" : 0
                },
                "metallicFactor" : 0,
                "roughnessFactor" : 0.9
            }
        },
        {
            "doubleSided" : true,
            "extensions" : {
                "KHR_materials_unlit" : {}
            },
            "name" : "syna.002",
            "pbrMetallicRoughness" : {
                "baseColorFactor" : [
                    0.3052835762500763,
                    0.1951485276222229,
                    0.09527435898780823,
                    1
                ],
                "metallicFactor" : 0,
                "roughnessFactor" : 0.9
            }
        },
        {
            "extensions" : {
                "KHR_materials_unlit" : {}
            },
            "name" : "material.002",
            "pbrMetallicRoughness" : {
                "baseColorFactor" : [
                    0.6672515869140625,
                    0.6605812311172485,
                    0.6605812311172485,
                    1
                ],
                "metallicFactor" : 0,
                "roughnessFactor" : 0.9
            }
        }
    ],
    "meshes" : [
        {
            "name" : "aroe_0.001",
            "primitives" : [
                {
                    "attributes" : {
                        "POSITION" : 0,
                        "NORMAL" : 1,
                        "TEXCOORD_0" : 2
                    },
                    "indices" : 3,
                    "material" : 0
                }
            ]
        },
        {
            "name" : "Pot001_0.001",
            "primitives" : [
                {
                    "attributes" : {
                        "POSITION" : 4,
                        "NORMAL" : 5
                    },
                    "indices" : 6,
                    "material" : 1
                }
            ]
        },
        {
            "name" : "Pot001_1.001",
            "primitives" : [
                {
                    "attributes" : {
                        "POSITION" : 7,
                        "NORMAL" : 8
                    },
                    "indices" : 9,
                    "material" : 2
                }
            ]
        }
    ],
    "textures" : [
        {
            "sampler" : 0,
            "source" : 0
        }
    ],
    "images" : [
        {
            "bufferView" : 4,
            "mimeType" : "image/png",
            "name" : "Image_0"
        }
    ],
    "accessors" : [
        {
            "bufferView" : 0,
            "componentType" : 5126,
            "count" : 1560,
            "max" : [
                0.6561300158500671,
                1.6358699798583984,
                1.1284099817276
            ],
            "min" : [
                -0.9451000094413757,
                -0.09137000143527985,
                -0.47446000576019287
            ],
            "type" : "VEC3"
        },
        {
            "bufferView" : 1,
            "componentType" : 5126,
            "count" : 1560,
            "type" : "VEC3"
        },
        {
            "bufferView" : 2,
            "componentType" : 5126,
            "count" : 1560,
            "type" : "VEC2"
        },
        {
            "bufferView" : 3,
            "componentType" : 5123,
            "count" : 7680,
            "type" : "SCALAR"
        },
        {
            "bufferView" : 5,
            "componentType" : 5126,
            "count" : 513,
            "max" : [
                0.2334900051355362,
                0.22335000336170197,
                0.36812999844551086
            ],
            "min" : [
                -0.2334900051355362,
                -0.22335000336170197,
                0.3466799855232239
            ],
            "type" : "VEC3"
        },
        {
            "bufferView" : 6,
            "componentType" : 5126,
            "count" : 513,
            "type" : "VEC3"
        },
        {
            "bufferView" : 7,
            "componentType" : 5123,
            "count" : 2880,
            "type" : "SCALAR"
        },
        {
            "bufferView" : 8,
            "componentType" : 5126,
            "count" : 738,
            "max" : [
                0.2882300019264221,
                0.2757200002670288,
                0.44892001152038574
            ],
            "min" : [
                -0.2882300019264221,
                -0.2757200002670288,
                0.00041000000783242285
            ],
            "type" : "VEC3"
        },
        {
            "bufferView" : 9,
            "componentType" : 5126,
            "count" : 738,
            "type" : "VEC3"
        },
        {
            "bufferView" : 10,
            "componentType" : 5123,
            "count" : 4416,
            "type" : "SCALAR"
        }
    ],
    "bufferViews" : [
        {
            "buffer" : 0,
            "byteLength" : 18720,
            "byteOffset" : 0
        },
        {
            "buffer" : 0,
            "byteLength" : 18720,
            "byteOffset" : 18720
        },
        {
            "buffer" : 0,
            "byteLength" : 12480,
            "byteOffset" : 37440
        },
        {
            "buffer" : 0,
            "byteLength" : 15360,
            "byteOffset" : 49920
        },
        {
            "buffer" : 0,
            "byteLength" : 592622,
            "byteOffset" : 65280
        },
        {
            "buffer" : 0,
            "byteLength" : 6156,
            "byteOffset" : 657904
        },
        {
            "buffer" : 0,
            "byteLength" : 6156,
            "byteOffset" : 664060
        },
        {
            "buffer" : 0,
            "byteLength" : 5760,
            "byteOffset" : 670216
        },
        {
            "buffer" : 0,
            "byteLength" : 8856,
            "byteOffset" : 675976
        },
        {
            "buffer" : 0,
            "byteLength" : 8856,
            "byteOffset" : 684832
        },
        {
            "buffer" : 0,
            "byteLength" : 8832,
            "byteOffset" : 693688
        }
    ],
    "samplers" : [
        {
            "magFilter" : 9729,
            "minFilter" : 9987
        }
    ],
    "buffers" : [
        {
            "byteLength" : 702520,
            "uri" : "data:application/octet-stream;base64,"
        }
    ]
}
